<svg xmlns="http://www.w3.org/2000/svg" xmlns:xlink="http://www.w3.org/1999/xlink" width="612" height="442.572" viewBox="0 0 612 442.572"><defs><linearGradient id="a" y1="0.5" x2="1" y2="0.5" gradientUnits="objectBoundingBox"><stop offset="0" stop-color="#fed747"/><stop offset="1" stop-color="#f94e43"/></linearGradient><linearGradient id="f" x1="1" y1="0.5" x2="0" y2="0.5" xlink:href="#a"/></defs><g transform="translate(-1195.585 -213.539)"><g transform="translate(1195.585 213.539)"><g transform="translate(0 29.186)"><path d="M1238.134,732.244s-72.445-98.242-12.252-204.6c53.407-94.371,115.675-87.92,161.359-49.624,19.458,16.311,75.556,2.01,123.3-94.016,65.114-130.953,290.823-51.529,249.669,149.945-19.916,97.5,60.611,101.043,19.579,198.5Z" transform="translate(-1200.221 -319.903)" fill="#fff1db"/><path d="M.838,0H611.162A.838.838,0,0,1,612,.838v0a.838.838,0,0,1-.838.838H.837A.837.837,0,0,1,0,.838v0A.838.838,0,0,1,.838,0Z" transform="translate(0 411.71)" fill="#4a2c6a"/></g><ellipse cx="74.305" cy="53.5" rx="74.305" ry="53.5" transform="matrix(0.747, -0.665, 0.665, 0.747, 112.921, 98.777)" fill="#fff1db"/><ellipse cx="16.527" cy="22.955" rx="16.527" ry="22.955" transform="translate(69.205 113.967) rotate(-41.657)" fill="#fff1db"/><path d="M3214.265,482.841c-2.792-12.366,2.162-24.021,11.066-26.031s18.385,6.385,21.177,18.751-2.163,24.02-11.066,26.031S3217.057,495.208,3214.265,482.841Z" transform="translate(-2659.774 -389.841)" fill="#fff1db"/></g><g transform="translate(1231.013 402.826)"><g transform="translate(0 78.195)"><g transform="translate(34.066 7.596)"><path d="M1526.324,1384.745c-2.449-1.425-3.666-2.571-5.45-2.828s-5.009-.458-5.459-1.137c-1.1-1.663-2.263-4.914-1.448-4.7s3.867,2.316,4.828,1.987-1.464-1.106-.881-1.588c.609-.5,3.254.713,3.866,2.075.214.477,7.806,2.837,7.806,2.837Z" transform="translate(-1495.897 -1332.148)" fill="#ffb792"/><path d="M1609.994,1664.811a1.42,1.42,0,0,1-.812,1.31.01.01,0,0,1-.008,0,9.446,9.446,0,0,1-4.4.493c-.231-.01-.438-.016-.623-.016-.049,0-.1,0-.144,0l-.111,0c-1.784.043-1.6.578-4.986.868-3.865.33-5.289-.853-5.517-1.391-.191-.457,1.467-.975,3.32-1.567l.27-.086c.247-.078.495-.16.741-.24,2.206-.733,4.378-1.6,4.92-3.836.575-2.368-1.153-8.978-1.153-8.978l6.125-.661s.59,6.91.975,9.063a23.754,23.754,0,0,0,1.034,3.048c.022.069.042.138.061.208A6.771,6.771,0,0,1,1609.994,1664.811Z" transform="translate(-1553.713 -1531.431)" fill="#f3b395"/><path d="M1609.994,1696.836a1.42,1.42,0,0,1-.812,1.31.01.01,0,0,1-.008,0,10.937,10.937,0,0,1-4.4.482c-.231-.006-.438-.008-.627,0-.049,0-.1,0-.144,0l-.111,0c-1.784.044-1.6.578-4.986.869-3.865.329-5.289-.853-5.517-1.391-.191-.457,1.467-.975,3.32-1.567a11.453,11.453,0,0,0,5.93.506c2.579-.485,5.14-1.768,6.982-2.2.022.069.042.139.061.207A6.772,6.772,0,0,1,1609.994,1696.836Z" transform="translate(-1553.713 -1563.456)" fill="#89e0f1"/><path d="M1465.378,1642.2c-.34,1.7-2.765,1.417-5.474.755s-2.065.125-5.92-.3-5.023-1.864-5.141-2.438c-.105-.508,1.8-.688,3.843-.923.257-.029.515-.06.773-.092,2.307-.29,4-1.778,6.092-3,1.985-1.158,4.947-5.876,4.947-5.876l5.287.419s-2.774,4.214-3.847,6.046a6.391,6.391,0,0,0-.519,3.6A6.782,6.782,0,0,1,1465.378,1642.2Z" transform="translate(-1448.84 -1516.636)" fill="#f3b395"/><path d="M1459.9,1666.671c-2.709-.662-2.065.125-5.92-.3s-5.023-1.864-5.141-2.438c-.105-.509,1.8-.688,3.843-.923l.019.039a10.868,10.868,0,0,0,5.521,1.716c2.615.064,5.385-.686,7.192-.656a6.782,6.782,0,0,1-.041,1.809C1465.038,1667.616,1462.614,1667.333,1459.9,1666.671Z" transform="translate(-1448.84 -1540.353)" fill="#89e0f1"/><path d="M1582.95,1527.99l11.395,30.665a10.427,10.427,0,0,0,3.428-.314,14.764,14.764,0,0,0,3.314-1.614s-2.827-29.444-8.009-35.568S1582.95,1527.99,1582.95,1527.99Z" transform="translate(-1546.15 -1436.234)" fill="#6139bc"/><path d="M1564.022,1481.276s-32.741-11.071-40.043-8.715-29.227,45.975-29.227,45.975a4.232,4.232,0,0,0,1.845,1.165,17.411,17.411,0,0,0,4.3.441s19.786-16.959,22.142-21.906,3.3-9.658,5.653-9.187,30.386,11.542,36.746,4.947a18.36,18.36,0,0,0,4.7-15.165Z" transform="translate(-1482.154 -1401.925)" fill="#6e49c1"/><path d="M1666.076,1243.861a18.6,18.6,0,0,1-1.393-6.415c.044.339.633,4.65,2.291,7.091,6.809,4.47,19.861,19.4,19.6,22.226,0,0,4.6-7.8,4.676-7.844,0,0,8.48-10.784-1.57-16.961-5.108-3.139-5.083-7.169-4.869-10.669s-1.393-18.567-11.626-14.624a6.662,6.662,0,0,0-2.378-.62,2.012,2.012,0,0,1,.906.43,7.939,7.939,0,0,0-4.3.822C1663.667,1219.43,1660.311,1238.554,1666.076,1243.861Z" transform="translate(-1604.216 -1216.013)" fill="#ff4a1e"/><path d="M1679.015,1294.113c-.034.015,3.288,1.74,5.786,1.056,2.35-.641,3.886-3.688,3.854-3.7-1-.2-1.282-1.565-1.261-7.443l-.45.088-7.566,1.5s.172,2.381.177,4.624C1679.56,1292.126,1679.446,1293.912,1679.015,1294.113Z" transform="translate(-1615.855 -1265.368)" fill="#ffb792"/><path d="M1680.339,1285.852s.172,2.381.177,4.624c4.234-.119,6.471-3.981,7.388-6.122Z" transform="translate(-1616.815 -1265.601)" fill="#f3b092"/><path d="M1666.365,1252.86s10.017.165,10.024-6.074,1.3-10.42-5.091-10.79-7.64,2.01-8.149,4.092S1663.759,1252.656,1666.365,1252.86Z" transform="translate(-1604.255 -1230.485)" fill="#ffb792"/><path d="M1676.538,1232.186s2.743,7.32,6.951,8.4,6.035-.045,6.035-.045a11.92,11.92,0,0,1-3.9-7.042S1678.607,1228.7,1676.538,1232.186Z" transform="translate(-1614.057 -1226.828)" fill="#ff4a1e"/><path d="M1665.6,1234.549a8.849,8.849,0,0,0-2.548,3.224c-.5,1.589-.724,4.86-1.677,4.749,0,0-2.066-4.976.256-7.79C1664.1,1231.746,1665.6,1234.549,1665.6,1234.549Z" transform="translate(-1602.443 -1228.597)" fill="#ff4a1e"/><path d="M1603.453,1340.73c.988-4.143-2.373-12.182-5.881-18.837-3.183-6.032-6.487-10.925-6.784-10.75-8.4,4.983-9.154.84-9.154.84s-7.626,1.013-9.785,4.73c-2.987,5.14-6.239,20.564-9.435,20.337-1.467-.105-16.229-5.653-16.229-5.653s-2.459,2.3-1.988,5.13a154.159,154.159,0,0,0,13.452,8c3.26,1.647,6.206,2.8,7.591,2.473,2.808-.661,7.194-7.17,9.564-11l.016-.026c3.025,17.122-1.088,21.021.994,22.826,2.2,1.906,5.339-.908,12.249,2.087,4.532,1.966,10.822,4.808,15.056,5.3,2.22.261,3.877-.126,4.417-1.626C1609.106,1360.2,1601.568,1348.627,1603.453,1340.73Z" transform="translate(-1517.987 -1285.036)" fill="#eaeaea"/><path d="M1673.347,1282.431s-.187.793-2.159.67c0,0-1.656-.1-1.6-.973A5.327,5.327,0,0,1,1673.347,1282.431Z" transform="translate(-1609.01 -1263.838)" fill="#eaeaea"/><path d="M1722.649,1410.885c-.54,1.5-2.2,1.886-4.417,1.626-2.931-1.276-15.59-6.181-15.448-9.5.21-4.92,2.434-5.077.864-11.15-1.261-4.876,7.311-14.9,9.177-16.873,3.508,6.655,6.73,7.929,5.742,12.072C1716.681,1394.954,1724.219,1406.528,1722.649,1410.885Z" transform="translate(-1633.1 -1331.362)" fill="#c8d1ce"/><path d="M1610.533,1399.48c-2.37,3.832-6.756,10.341-9.564,11-1.385.326-4.331-.826-7.591-2.473a19.723,19.723,0,0,0,6.937.38c2.434-.236,3.141-3.22,6.988-7.7C1609.8,1397.791,1610.411,1398.522,1610.533,1399.48Z" transform="translate(-1553.717 -1348.522)" fill="#c8d1ce"/><path d="M1680.042,1432.563s-2.12-1.649-4.122-1.256-2.984,1.766-2.906,2.395a3.572,3.572,0,0,0,2.67,2.552c1.531.157,5.889-.942,5.889-.942Z" transform="translate(-1611.497 -1372.187)" fill="#ffb792"/><path d="M1700.782,1311.156s8.164.5,10.99,4.445c3.978,5.549,10.888,28.2,9,33.384l-24.839-.1s-.6-2.814.236-4.175,14.448-3.56,15.076-4.188-7.852-12.249-7.852-14.134S1700.782,1311.156,1700.782,1311.156Z" transform="translate(-1627.982 -1285.049)" fill="#eaeaea"/></g><g transform="translate(130.931)"><path d="M1809.815,1439.527a9.375,9.375,0,0,0-3.363-.527c-1.1.227-4.495,1.813-4.571,2.153a1.246,1.246,0,0,0,0,.585h7.934s1.774-.345,2.076-1.39S1809.815,1439.527,1809.815,1439.527Z" transform="translate(-1801.848 -1370.185)" fill="#ffb792"/><path d="M1891.586,1764.989a1.521,1.521,0,0,1-.992,1.318.013.013,0,0,1-.009,0c-1.056.463-2.828.358-4.743.1-.245-.032-.466-.059-.663-.077-.052-.005-.1-.009-.154-.012l-.119-.009c-1.906-.125-1.757.462-5.4.444-4.153-.022-5.557-1.421-5.748-2.017-.16-.506,1.659-.9,3.692-1.35.1-.022.2-.045.3-.066.271-.06.543-.123.814-.184,2.424-.569,4.824-1.287,5.618-3.615.842-2.47.642-9.8.642-9.8h7.355s-1.93,8.1-1.728,10.429c.11,1.246.706,1.6.935,2.679.017.076.032.151.045.227A7.238,7.238,0,0,1,1891.586,1764.989Z" transform="translate(-1854.017 -1595.678)" fill="#ff4a1e"/><g transform="translate(26.601 63.645)"><path d="M1918.316,1446.732c-.621,3.485-1.506,7.086-2.276,10.831-1.236,6.022-2.168,12.42-1.214,19.309a23.934,23.934,0,0,1,.2,2.917c.185,12.176-5.255,34.241-5.255,34.241a9.606,9.606,0,0,1-3.954.515,12.559,12.559,0,0,1-3.231-.885s-.515-13.681-.546-32.079c-.022-13.336-2.641-30.9-3.17-41.214a132.168,132.168,0,0,1,.375-14.563s10.844-8.72,14.74-4.259C1917.836,1425.954,1920.639,1433.7,1918.316,1446.732Z" transform="translate(-1898.789 -1420.274)" fill="#643dbd"/></g><path d="M1931.546,1535.282a24.008,24.008,0,0,1,.2,2.917c-8.122-11.767-9.918-37.427-9.918-37.427l8.92,4.329s.978,4.812,2.008,10.871C1931.524,1522,1930.591,1528.394,1931.546,1535.282Z" transform="translate(-1888.908 -1415.039)" fill="#4a2c76"/><path d="M1977.094,1763.781a1.52,1.52,0,0,1-.993,1.318.011.011,0,0,1-.008,0c-1.057.463-2.828.358-4.743.1-.245-.032-.465-.059-.663-.077l-.154-.012-.119-.009c-1.906-.126-1.757.462-5.4.444-4.153-.022-5.557-1.421-5.748-2.017-.16-.506,1.658-.9,3.691-1.35l.3-.066c.271-.06.543-.123.813-.184,2.424-.569,4.824-1.286,5.618-3.615.842-2.47-.362-9.685-.362-9.685l6.814-.569s-.423,8.221-.22,10.554c.11,1.246.742,1.932.972,3.01q.025.114.045.227A7.247,7.247,0,0,1,1977.094,1763.781Z" transform="translate(-1916.062 -1594.47)" fill="#ff4a1e"/><path d="M1944.179,1538.469a16.56,16.56,0,0,1-3.013,1.081,14.47,14.47,0,0,1-3.881-.24,177.7,177.7,0,0,0-3.7-22.932,214.6,214.6,0,0,0-11.086-35.132c-1.076-2.543-5.516-14.584-6.269-17.622-2.279-9.181.009-8.192.009-8.192l19.912-2.336s2.453,1.26,3.583,14.225c.338,3.882.38,20.646.889,23.824a35.575,35.575,0,0,0,1.71,7.138C1946.028,1507.362,1944.179,1538.469,1944.179,1538.469Z" transform="translate(-1884.107 -1380.444)" fill="#643dbd"/><path d="M1977.094,1799.651a1.521,1.521,0,0,1-.993,1.318.011.011,0,0,1-.008,0,11.712,11.712,0,0,1-4.739.089c-.246-.029-.467-.05-.668-.065-.052-.005-.1-.009-.154-.012l-.119-.009c-1.906-.125-1.757.462-5.4.444-4.153-.022-5.557-1.421-5.748-2.017-.16-.506,1.658-.9,3.691-1.35a12.265,12.265,0,0,0,6.274,1.112c2.8-.268,5.652-1.388,7.658-1.668.017.076.032.151.045.227A7.25,7.25,0,0,1,1977.094,1799.651Z" transform="translate(-1916.062 -1630.34)" fill="#82def0"/><path d="M1891.586,1799.651a1.521,1.521,0,0,1-.992,1.318.014.014,0,0,1-.009,0,11.71,11.71,0,0,1-4.738.089c-.246-.029-.466-.05-.668-.065-.052-.005-.1-.009-.154-.012l-.119-.009c-1.906-.125-1.757.462-5.4.444-4.153-.022-5.557-1.421-5.748-2.017-.16-.506,1.659-.9,3.692-1.35a12.266,12.266,0,0,0,6.275,1.112c2.8-.268,5.652-1.388,7.657-1.668.017.076.032.151.045.227A7.24,7.24,0,0,1,1891.586,1799.651Z" transform="translate(-1854.017 -1630.34)" fill="#82def0"/><path d="M1904.252,1201.358c-.673-5.493,1.043-14.282,12.006-12.878s14.418,12.179,12.207,16.969,3.183,5.946,4.876,11.1c1.455,4.426,1.962,9.921,4.316,12.387,7.589,7.951-7.287,20.177-16.254,17.6-16.334-4.7-18.438-5.4-17.859-18.231.3-6.575,5.414-9.123,2.165-11.026C1897.862,1212.68,1905.774,1213.787,1904.252,1201.358Z" transform="translate(-1874.649 -1188.331)" fill="#4a2c76"/><path d="M1934.62,1262.029l-3.016,7.8-6.524.321-3.25-4.869c2.436-1.845,3.194-4.8,3.375-7.139a17.043,17.043,0,0,0,.015-2.359c-.012-.193-.027-.365-.042-.514-.006-.059-.012-.116-.018-.166-.027-.256-.051-.422-.056-.479a.067.067,0,0,1-.006-.021l.078-.024,3.152-.959,4.926-1.5c.009.181.017.362.026.538.095,1.9.205,3.419.324,4.625.018.169.032.33.05.487C1934.1,1261.928,1934.62,1262.029,1934.62,1262.029Z" transform="translate(-1888.907 -1234.617)" fill="#ffb792"/><path d="M1933.862,1259.574a17.062,17.062,0,0,0,.015-2.359c-.012-.193-.027-.365-.042-.514-.006-.059-.012-.116-.018-.166-.027-.256-.051-.422-.057-.479l.072-.045a5.776,5.776,0,0,1,2.192-.841c.309-.033.63-.071.96-.119,2.294-.321,4.837-.936,4.949-.959C1941.773,1254.247,1937.273,1258.57,1933.862,1259.574Z" transform="translate(-1897.564 -1236.048)" fill="#f3b092"/><path d="M1903.617,1286.3c.42,0,7.539-1.448,19.562,1.627,0,0-6.585,30.168-4.348,35.854a60.074,60.074,0,0,1,3.087,10.733l-24.267.3s.339-19.517-.779-26.425S1903.617,1286.3,1903.617,1286.3Z" transform="translate(-1870.719 -1259.171)" fill="#ffb792"/><path d="M1918.156,1320.854c.355,3.994,4.086,13.119,3.279,15.062-.846,2.041-2.021,3.076-4.592,3.665a47.468,47.468,0,0,1-7.654.777c-7.311.363-15.145-.555-16.211-4.031-.511-1.668-.314-8.122-.043-11.1.56-6.166-.614-15.014-.785-20.739-.141-4.775,2.74-15.643,2.74-15.643s1.3-.82,5.377-1.641c0,0,.429,5.645,3.375,6.131,5.093.84,9.2-3.826,10.4-5.7,0,0,5.85,1.477,7.567,3.434,1.626,1.853-.6,15.582-1.093,16.9-.427,1.13-.831,2.233-1.182,3.341A23.306,23.306,0,0,0,1918.156,1320.854Z" transform="translate(-1867.366 -1260.073)" fill="#eaeaea"/><path d="M2057.286,1439.61a9.46,9.46,0,0,1,3.364-.522c1.1.225,4.495,1.8,4.57,2.134a1.22,1.22,0,0,1,0,.58h-7.934s-1.773-.342-2.076-1.378S2057.286,1439.61,2057.286,1439.61Z" transform="translate(-1985.668 -1370.25)" fill="#ffb792"/><path d="M1921.5,1220.572s9.765,1.961,10.893-4.139,3.148-9.955-3.04-11.465-7.832.593-8.7,2.538S1918.984,1219.905,1921.5,1220.572Z" transform="translate(-1887.435 -1200.029)" fill="#ffb792"/><path d="M1943.362,1200.078s-.171,2.069,3.04,5.58,2.586,10.61,2.586,10.61,5.273-11.014,2.385-14.262S1943.362,1200.078,1943.362,1200.078Z" transform="translate(-1904.529 -1196.662)" fill="#4a2c76"/><path d="M1928.071,1190.261s-4.855-1.625-9.672,3.123c-2.076,2.045-1.762,6.065-.65,8.4,0,0,1.707-5,4.815-6.089S1928.071,1190.261,1928.071,1190.261Z" transform="translate(-1885.312 -1189.536)" fill="#4a2c76"/><path d="M1927.781,1250.231s-.261.724-2.1.4c0,0-1.543-.276-1.4-1.088A5.035,5.035,0,0,1,1927.781,1250.231Z" transform="translate(-1890.677 -1232.689)" fill="#eaeaea"/><path d="M1955.909,1315.857c-3.694-14.255-5.72-22.395-8.747-24.858-2.677-2.178-8.449-2.378-8.449-2.378a29.5,29.5,0,0,0,.2,5.138l-7.1,13.531a59.477,59.477,0,0,0-4.931,15.071c-1.482,9.027-.578,18.94.633,19.909,2.266,1.813,21.643,2.337,21.983,1.169s-7.026-20.51-6.006-24.7c.326-1.341.757-4.4,1.192-7.939,2.335,4.477,4.53,7.622,4.842,8.355.724,1.7,11.744,12.457,11.744,12.457a5.767,5.767,0,0,0,1.6-.564,3.455,3.455,0,0,0,1.093-.968C1962.018,1326.038,1955.909,1315.857,1955.909,1315.857Z" transform="translate(-1892.015 -1261.101)" fill="#ff7042"/><path d="M1953.4,1288.474l-6.515,18.709,6.514-6.159-.493-1.915a4.566,4.566,0,0,0,2.1-.259c.607-.392,2.022-9.958,2.022-9.958s-1.385-.222-1.838-.275S1953.4,1288.474,1953.4,1288.474Z" transform="translate(-1907.09 -1260.995)" fill="#ff4a1e"/><path d="M1854.968,1306.261a81.919,81.919,0,0,1-1.2-8.86,33.89,33.89,0,0,0,1.168-10.2l-.447.026c-1.4.1-5.773.544-8,2.373-3.026,2.485-3.706,13.4-8.747,25.078,0,0-6.109,10.271-8.053,14.346a3.463,3.463,0,0,0,1.093.977,5.745,5.745,0,0,0,1.6.569s11.02-10.852,11.744-12.568c.238-.564,1.572-2.543,3.227-5.454h0s.571,20.151-1.015,24.421c0,0,6.253,4.492,11.485,4.039C1858.5,1340.949,1854.968,1306.261,1854.968,1306.261Z" transform="translate(-1822.045 -1260.073)" fill="#ff7042"/><path d="M1910.758,1287.2s-1.372,14.79.036,19.058c0,0-4.031-6.383-3.276-7.705l1.461-.963s-2.821-.367-2.292-1.987,2.881-8.313,2.881-8.313Z" transform="translate(-1877.872 -1260.073)" fill="#ff4a1e"/></g><g transform="translate(21.692 81.168)"><path d="M1403.747,1684.353H1626.99v-51.016l-223.243-.509Z" transform="translate(-1403.747 -1592.026)" fill="#4a2c6a"/><rect width="223.243" height="13.341" fill="#4a2c6a"/></g><path d="M4.808,0H254.169a4.808,4.808,0,0,1,4.808,4.808v0a4.808,4.808,0,0,1-4.808,4.808H4.808A4.808,4.808,0,0,1,0,4.808v0A4.808,4.808,0,0,1,4.808,0Z" transform="translate(0 71.552)" fill="#6e49c1"/><path d="M1508.379,1449.227l-.07.04.021-.04Z" transform="translate(-1457.925 -1377.637)" fill="#4ac6f0"/><g transform="translate(96.829 44.488)"><path d="M1683,1354.533l-4.956-.707a.553.553,0,0,1-.469-.626l.323-2.268a.553.553,0,0,1,.626-.47l4.956.706a.554.554,0,0,1,.47.626l-.323,2.268A.554.554,0,0,1,1683,1354.533Z" transform="translate(-1677.571 -1350.458)" fill="#4a2c76"/><rect width="1.601" height="2.146" transform="translate(1.068 0.624) rotate(8.12)" fill="#ffdd71"/><path d="M1691.322,1354.788l-1.973-.281a.269.269,0,0,1-.228-.3h0a.269.269,0,0,1,.3-.228l1.973.281a.269.269,0,0,1,.228.3h0A.268.268,0,0,1,1691.322,1354.788Z" transform="translate(-1685.949 -1353.009)" fill="#ffdd71"/><path d="M1691.048,1358.3l-2.3-.328a.1.1,0,0,1-.087-.116h0a.1.1,0,0,1,.115-.086l2.3.328a.1.1,0,0,1,.087.116h0A.1.1,0,0,1,1691.048,1358.3Z" transform="translate(-1685.616 -1355.761)" fill="#ffdd71"/><path d="M1690.877,1359.5l-2.3-.328a.1.1,0,0,1-.087-.116h0a.1.1,0,0,1,.115-.087l2.3.328a.1.1,0,0,1,.087.116h0A.1.1,0,0,1,1690.877,1359.5Z" transform="translate(-1685.492 -1356.63)" fill="#ffdd71"/></g><g transform="translate(175.902 42.426)"><path d="M1.551,0h2.48A1.551,1.551,0,0,1,5.582,1.551v0A1.551,1.551,0,0,1,4.031,3.1H1.55A1.55,1.55,0,0,1,0,1.552v0A1.551,1.551,0,0,1,1.551,0Z" transform="matrix(0.998, 0.061, -0.061, 0.998, 0.19, 0)" fill="#4a2c76"/><rect width="1.462" height="1.96" transform="translate(0.843 0.586) rotate(3.521)" fill="#ffdd71"/><path d="M1977.985,1346.175l-1.817-.112a.246.246,0,0,1-.229-.26h0a.247.247,0,0,1,.26-.23l1.816.112a.246.246,0,0,1,.23.26h0A.246.246,0,0,1,1977.985,1346.175Z" transform="translate(-1973.139 -1344.852)" fill="#ffdd71"/><path d="M1977.961,1349.423l-2.119-.131a.093.093,0,0,1-.087-.1h0a.093.093,0,0,1,.1-.087l2.12.13a.094.094,0,0,1,.087.1h0A.094.094,0,0,1,1977.961,1349.423Z" transform="translate(-1973.006 -1347.416)" fill="#ffdd71"/><path d="M1977.894,1350.526l-2.119-.13a.094.094,0,0,1-.087-.1h0a.093.093,0,0,1,.1-.088l2.119.13a.094.094,0,0,1,.088.1h0A.094.094,0,0,1,1977.894,1350.526Z" transform="translate(-1972.957 -1348.216)" fill="#ffdd71"/></g><path d="M1932.177,1412.216a.7.7,0,1,1,.7.7A.7.7,0,0,1,1932.177,1412.216Z" transform="translate(-1765.484 -1350.272)" fill="#fff"/><path d="M1932.177,1428.305a.7.7,0,1,1,.7.7A.7.7,0,0,1,1932.177,1428.305Z" transform="translate(-1765.484 -1361.946)" fill="#fff"/><path d="M1403.747,1560.213l223.243.509v-27.969H1403.747Z" transform="translate(-1382.055 -1438.244)" fill="#56309e" opacity="0.9"/><g transform="translate(224.649 48.421)"><path d="M2148.366,1364.791l-4.979,23.132h19.4l4.34-23.132Z" transform="translate(-2143.387 -1364.791)" fill="#ff4a1e"/><path d="M2152.071,1367.475l-4.5,20.893H2165.1l3.92-20.893Z" transform="translate(-2146.425 -1366.738)" fill="#eaeaea"/></g><path d="M2180.9,1374.482h-13.34a.448.448,0,0,1-.447-.447h0a.448.448,0,0,1,.447-.447h13.34a.448.448,0,0,1,.447.447h0A.448.448,0,0,1,2180.9,1374.482Z" transform="translate(-1935.953 -1322.754)" fill="#4a2c6a"/><path d="M2178.419,1382.159h-13.34a.448.448,0,0,1-.447-.447h0a.448.448,0,0,1,.447-.447h13.34a.448.448,0,0,1,.447.447h0A.448.448,0,0,1,2178.419,1382.159Z" transform="translate(-1934.153 -1328.324)" fill="#4a2c6a"/><path d="M2176.868,1389.524h-13.339a.449.449,0,0,1-.447-.447h0a.448.448,0,0,1,.447-.447h13.339a.448.448,0,0,1,.447.447h0A.448.448,0,0,1,2176.868,1389.524Z" transform="translate(-1933.028 -1333.669)" fill="#4a2c6a"/><path d="M2174.619,1404.712h-13.34a.448.448,0,0,1-.447-.447h0a.448.448,0,0,1,.447-.447h13.34a.448.448,0,0,1,.447.447h0A.448.448,0,0,1,2174.619,1404.712Z" transform="translate(-1931.396 -1344.688)" fill="#4a2c6a"/><path d="M2172.139,1412.388H2158.8a.448.448,0,0,1-.447-.447h0a.448.448,0,0,1,.447-.447h13.34a.448.448,0,0,1,.447.447h0A.448.448,0,0,1,2172.139,1412.388Z" transform="translate(-1929.596 -1350.258)" fill="#4a2c6a"/><path d="M2170.588,1419.754h-13.34a.449.449,0,0,1-.447-.447h0a.448.448,0,0,1,.447-.447h13.34a.448.448,0,0,1,.447.447h0A.448.448,0,0,1,2170.588,1419.754Z" transform="translate(-1928.471 -1355.603)" fill="#4a2c6a"/><path d="M2121.1,1419.34a13.787,13.787,0,0,1-.169-5.339c.267-1.6.188-2.541-.236-2.788-.344-.2-.76.129-.777.144l.04.05-.295-.089-2.613,8.66a1.9,1.9,0,0,0-1.84,1.583h3.868a1.622,1.622,0,0,0-.066-.286c.209.017.437.029.667.029.693,0,1.39-.108,1.535-.517A3.238,3.238,0,0,0,2121.1,1419.34Zm0,1.4c-.162.456-1.267.472-2.135.4a1.915,1.915,0,0,0-1.347-1.114l2.58-8.551-.158-.048c.1-.066.376-.235.6-.106.256.15.495.733.174,2.657a13.9,13.9,0,0,0,.169,5.385A3.219,3.219,0,0,1,2121.094,1420.743Z" transform="translate(-1898.292 -1350.008)" fill="#eaeaea"/><g transform="translate(183.793 84.066)"><path d="M1998.177,1494.692l1.139,2.307,2.546.37-1.842,1.8.435,2.536-2.277-1.2-2.277,1.2.435-2.536-1.842-1.8,2.545-.37Z" transform="translate(-1994.493 -1494.692)" fill="url(#a)"/><path d="M2035.385,1494.692l1.138,2.307,2.546.37-1.842,1.8.435,2.536-2.276-1.2-2.277,1.2.435-2.536-1.842-1.8,2.546-.37Z" transform="translate(-2021.491 -1494.692)" fill="url(#a)"/><path d="M2074.715,1494.692l1.139,2.307,2.545.37-1.842,1.8.435,2.536-2.277-1.2-2.277,1.2.435-2.536-1.842-1.8,2.545-.37Z" transform="translate(-2050.029 -1494.692)" fill="url(#a)"/><path d="M2114.184,1494.692l1.138,2.307,2.546.37-1.842,1.8.435,2.536-2.277-1.2-2.277,1.2.435-2.536-1.842-1.8,2.545-.37Z" transform="translate(-2078.668 -1494.692)" fill="url(#a)"/><path d="M2148.422,1494.692l1.138,2.307,2.546.37-1.842,1.8.435,2.536-2.277-1.2-2.277,1.2.435-2.536-1.842-1.8,2.546-.37Z" transform="translate(-2103.511 -1494.692)" fill="url(#a)"/></g></g><g transform="translate(289.521)"><rect width="185.101" height="216.995" transform="translate(3.846 34.57)" fill="url(#f)"/><g transform="translate(44.291 34.57)"><rect width="0.687" height="217.634" fill="#8f76bf"/><g transform="translate(37.035)"><rect width="0.687" height="217.634" fill="#8f76bf"/></g><g transform="translate(70.37)"><rect width="0.687" height="217.634" fill="#8f76bf"/></g><g transform="translate(103.524)"><rect width="0.687" height="217.634" fill="#8f76bf"/></g></g><g transform="translate(204.944 100.782)"><path d="M7.333,0H17.9a7.333,7.333,0,0,1,7.333,7.333V30.607A7.333,7.333,0,0,1,17.9,37.94H7.332A7.332,7.332,0,0,1,0,30.608V7.333A7.333,7.333,0,0,1,7.333,0Z" fill="#7c409c"/><g transform="translate(8.362 20.995)"><path d="M3165.337,1351.261a3.884,3.884,0,0,1-.629,2.14,3.946,3.946,0,0,1-3.449,1.963,4.1,4.1,0,0,1-4.1-4.1,4.041,4.041,0,0,1,2.367-3.7,3.674,3.674,0,0,1,1.736-.4A4.083,4.083,0,0,1,3165.337,1351.261Z" transform="translate(-3157.156 -1347.158)" fill="#ff4a1e"/><path d="M3169.93,1351.261a3.884,3.884,0,0,1-.629,2.14,3.646,3.646,0,0,1-1.712.4,4.083,4.083,0,0,1-4.1-4.078,3.964,3.964,0,0,1,.629-2.164,3.675,3.675,0,0,1,1.737-.4A4.083,4.083,0,0,1,3169.93,1351.261Z" transform="translate(-3161.749 -1347.158)" fill="#ff7042"/></g><g transform="translate(8.362 7.225)"><path d="M3165.337,1301.078a3.886,3.886,0,0,1-.629,2.14,3.947,3.947,0,0,1-3.449,1.963,4.1,4.1,0,0,1-4.1-4.1,4.042,4.042,0,0,1,2.367-3.7,3.675,3.675,0,0,1,1.736-.4A4.083,4.083,0,0,1,3165.337,1301.078Z" transform="translate(-3157.156 -1296.975)" fill="#ff4a1e"/><path d="M3169.93,1301.078a3.886,3.886,0,0,1-.629,2.14,3.651,3.651,0,0,1-1.712.4,4.082,4.082,0,0,1-4.1-4.078,3.967,3.967,0,0,1,.629-2.165,3.677,3.677,0,0,1,1.737-.4A4.083,4.083,0,0,1,3169.93,1301.078Z" transform="translate(-3161.749 -1296.975)" fill="#ff7042"/></g></g><rect width="10.851" height="218.452" transform="translate(178.096 33.278)" fill="#ee8914"/><rect width="10.851" height="218.452" transform="translate(3.846 33.278)" fill="#ee8914"/><g transform="translate(67.144)"><rect width="60.155" height="21.469" rx="10.735" fill="#7c409c"/><path d="M2781.8,936.653h-8.065a1.072,1.072,0,0,1-.938-1.571l.938-1.712v-.046l2.907-5.323a1.022,1.022,0,0,1,1.759-.047l4.08,6.682.234.376A1.072,1.072,0,0,1,2781.8,936.653Z" transform="translate(-2732.013 -920.859)" fill="#ff4a1e"/><path d="M2785.229,934.636h-7.714a1.061,1.061,0,0,1-1.032-1.266v-.046l2.907-5.323a1.022,1.022,0,0,1,1.759-.047Z" transform="translate(-2734.76 -920.859)" fill="url(#a)"/><g transform="translate(15.763 5.627)"><g transform="translate(7.323)"><path d="M2713.448,928.542a2.5,2.5,0,0,0,1.129-2.154,2.346,2.346,0,0,0-.76-1.824,2.719,2.719,0,0,0-1.905-.7,3.389,3.389,0,0,0-1.561.366,2.59,2.59,0,0,0-1.161,1.089,1.737,1.737,0,0,0-.227.835,1.018,1.018,0,0,0,.208.621.625.625,0,0,0,.531.282.617.617,0,0,0,.618-.472,1.914,1.914,0,0,1,.5-.875,1.429,1.429,0,0,1,.965-.295,1.079,1.079,0,0,1,.791.289,1.057,1.057,0,0,1,.295.788,1.291,1.291,0,0,1-.509,1.17c-.007.009-.329.13-.962.363a.71.71,0,0,0-.509.689c0,.441.292.686.875.738q1.55.149,1.548,1.471a1.877,1.877,0,0,1-.187.888,1.435,1.435,0,0,1-1.347.7,1.5,1.5,0,0,1-1.145-.471,9.965,9.965,0,0,1-.58-.863.842.842,0,0,0-.658-.472.7.7,0,0,0-.552.242.836.836,0,0,0-.217.58,2.4,2.4,0,0,0,1.238,2,3.3,3.3,0,0,0,1.886.527,3.449,3.449,0,0,0,2.355-.81,2.815,2.815,0,0,0,.983-2.246A2.442,2.442,0,0,0,2713.448,928.542Z" transform="translate(-2708.626 -923.869)" fill="#ff4a1e"/></g><path d="M2686.689,932.439h-.943v-7.512a2.066,2.066,0,0,0-.112-.884c-.074-.115-.254-.174-.543-.174s-.686.022-1.173.056a4.791,4.791,0,0,0-1.062.168c-.437.14-.655.376-.655.708,0,.465.28.695.835.695h.916v6.944h-1.083c-.621,0-.931.27-.931.807a.719.719,0,0,0,.273.6,1.03,1.03,0,0,0,.673.217h3.8c.611,0,.916-.279.916-.835Q2687.6,932.439,2686.689,932.439Z" transform="translate(-2681.939 -923.869)" fill="#ff4a1e"/></g></g><rect width="185.999" height="3.846" transform="translate(3.846 30.724)" fill="#ff4a1e"/><rect width="220.767" height="3.846" transform="translate(3.846 30.724) rotate(90)" fill="#ff4a1e"/><rect width="220.767" height="3.846" transform="translate(192.793 30.724) rotate(90)" fill="#ff4a1e"/></g><g transform="translate(258.683 67.139)"><g transform="translate(0 84.088)"><path d="M2286.52,1759.381a3.743,3.743,0,1,0-3.743,3.743h1.473l.3-.447A3.742,3.742,0,0,0,2286.52,1759.381Z" transform="translate(-2275.846 -1673.001)" fill="#7c409c"/><path d="M2291.889,1759.381a3.743,3.743,0,1,1-3.743-3.742A3.743,3.743,0,0,1,2291.889,1759.381Z" transform="translate(-2279.742 -1673.001)" fill="#6139bc"/><g transform="translate(28.124 92.735)"><path d="M2377.395,1796.177a3.743,3.743,0,1,1-3.743-3.743A3.743,3.743,0,0,1,2377.395,1796.177Z" transform="translate(-2369.909 -1792.434)" fill="#7c409c"/><path d="M2382.764,1796.177a3.743,3.743,0,1,1-3.743-3.743A3.743,3.743,0,0,1,2382.764,1796.177Z" transform="translate(-2373.805 -1792.434)" fill="#6139bc"/></g><path d="M2281.96,1754.491l4.141,3.851a4.822,4.822,0,0,0,1.432.921l27.886,11.6,5.181-3.728Z" transform="translate(-2277.969 -1672.168)" fill="#7c409c"/><g transform="translate(42.573)"><path d="M2442.7,1494.991l-1.328-.917c6.113-8.848,17.931-26.28,18.9-28.921a4.852,4.852,0,0,0,.012-4.131,5.286,5.286,0,0,0-3.257-2.193l-.085-.021-6.192-1.913c-7.091-2.826-10.125,2.742-10.25,2.98l-.043.071-16.548,25-1.346-.891,16.533-24.978c.353-.624,4.146-6.894,12.221-3.7l6.063,1.87a6.819,6.819,0,0,1,4.3,2.964,6.361,6.361,0,0,1,.1,5.493C2460.5,1469.2,2443.424,1493.94,2442.7,1494.991Z" transform="translate(-2422.565 -1454.48)" fill="#7c409c"/></g><path d="M2410.093,1579.2l13.7,9.407s3.609,3.647-.534,10.932c-3.645,6.41-23.164,42.781-23.164,42.781s-4.064,7.567-19.889-1.9Z" transform="translate(-2349.258 -1544.976)" fill="#4a2c76"/><path d="M2332.108,1571.2l-22.144,40.609a10.4,10.4,0,0,1-13.169,4.61l-13.933-5.86-.345-.144-8.727-3.67a10.427,10.427,0,0,1-2.385-1.4q-.25-.194-.485-.4a10.4,10.4,0,0,1-1.92-13.308l23.643-37.8a10.409,10.409,0,0,1,11.987-4.394l2.555.816.609.2h0l.512.164,8.541,2.726,1.048.335,8.241,2.632a10.4,10.4,0,0,1,3.424,1.852c.064.053.128.105.191.161l.39.352A10.408,10.408,0,0,1,2332.108,1571.2Z" transform="translate(-2267.417 -1523.021)" fill="#744da5"/><path d="M2306.352,1733.852a10.4,10.4,0,0,1-9.493.733l-13.933-5.86-.345-.144-8.726-3.67a10.444,10.444,0,0,1-2.385-1.4c-.167-.13-.328-.264-.485-.4-2.585-2.288-4.5-7.421-2.891-11.312,0,0,29.56,12.194,35.3,15.772C2306.352,1729.417,2306.352,1732.039,2306.352,1733.852Z" transform="translate(-2267.48 -1641.19)" fill="#6139bc"/><g transform="translate(2.75 27.229)"><path d="M2315.581,1554.071c-.077.012-8.2,1.181-10.526,4.269-2.388,3.174-25.894,42.017-26.131,42.409a10.422,10.422,0,0,0,.151,8.351l-.4-.3q-.25-.194-.485-.4a9.353,9.353,0,0,1,.241-7.947c.97-1.6,23.76-39.261,26.164-42.458,2.107-2.8,7.986-3.975,9.861-4.286l.609.2h0Z" transform="translate(-2277.438 -1553.712)" fill="#eaeaea"/><g transform="translate(12.181 3.085)"><path d="M2357.378,1565.291a13.648,13.648,0,0,0-8.766,6.049c-3.378,5.445-24.939,46.267-25.156,46.678l-.016.03-.021.024a5.12,5.12,0,0,0-.727,4.251l-.35-.147-.345-.144a4.925,4.925,0,0,1,.968-4.308c.667-1.262,21.811-41.283,25.161-46.684a14.19,14.19,0,0,1,8.2-6.084Z" transform="translate(-2321.828 -1564.956)" fill="#eaeaea"/></g><g transform="translate(25.205 7.905)"><path d="M2404.065,1583.033a11.83,11.83,0,0,0-3.41,1,12.993,12.993,0,0,0-5.48,4.955c-3.376,5.443-24.16,46.43-24.37,46.842l-.016.033-.023.026a6.974,6.974,0,0,0-.481,4.707l-.878-.369a7.414,7.414,0,0,1,.9-4.682c.665-1.311,21.028-41.456,24.378-46.857a13.007,13.007,0,0,1,8.793-6.171c.064.053.128.105.191.161Z" transform="translate(-2369.292 -1582.519)" fill="#eaeaea"/></g></g></g><g transform="translate(67.472)"><path d="M2738.9,1435.584s5.128,1.965,5.8,2.677c1.112,1.183,3.243,5.2,2.131,6.067-.4.315-1.674-1.4-2.7-2.148a19.809,19.809,0,0,0-2.618-1.088c-.19.592,3.023,2.134,2.683,2.593s-2.592-.733-3.733-1-1.711-1.894-2.281-3.095a15.6,15.6,0,0,1-.886-3.482Z" transform="translate(-2675.838 -1356.681)" fill="#ffb792"/><g transform="translate(0 83.294)"><path d="M2515.775,1764.949s-2.973,2.755-2.393,4.713,3.263,3.263,3.625,5.656,1.813,3.7,3.118,3.7h6.223s.96-1.684-1.36-2.191-3.2-3.319-3.05-5.93a46.713,46.713,0,0,0-.218-6.09l-4.931-1.16Z" transform="translate(-2513.307 -1678.016)" fill="#4a2c76"/><path d="M2654.677,1789.36s-.725,5.8.58,6.453,16.894.435,16.894.435,0-1.958-2.683-2.392-7.4-2.03-8.193-5.583S2654.677,1789.36,2654.677,1789.36Z" transform="translate(-2615.739 -1694.914)" fill="#4a2c76"/><path d="M2641.51,1468.963s-.881,10.991-1.916,24.2c-1.407,17.947-3.1,39.993-3.267,44.169-.289,7.252-1.45,18.852-1.45,18.852s-2.754,2.756-8.265,1.594a189.733,189.733,0,0,1-6.315-34.08c-.022-.287-.043-.576-.065-.866-1.305-17.836-3.334-55.394-3.334-55.394Z" transform="translate(-2588.472 -1463.091)" fill="#74daee"/><path d="M2641.51,1468.963s-.881,10.991-1.916,24.2l-19.3,30.535c-.022-.287-.043-.576-.065-.866-1.305-17.836-3.334-55.394-3.334-55.394Z" transform="translate(-2588.472 -1463.091)" fill="#41b8e1"/><path d="M2568.849,1458.765s-15.879,39.805-26.32,58.511-13.7,23.927-13.7,23.927-5.982-2.393-6.525-4.024c0,0,3.992-36.113,10.985-44.917,3.951-4.975,8.592-19.9,8.809-25.123s1.414-15.553,1.414-15.553Z" transform="translate(-2519.833 -1451.587)" fill="#74daee"/></g><path d="M2634.957,1222.523c-6.206,1.958-16.1-3.638-16.1-3.638s3.17-2.7,4.3-8.919a18.841,18.841,0,0,0,.28-3.99l4.254,3.425,3.8,3.066s-.009,1.139-.235,3.177c-.109.962-.267,2.126-.493,3.463A14.8,14.8,0,0,1,2634.957,1222.523Z" transform="translate(-2589.894 -1190.077)" fill="#ffb792"/><path d="M2651.058,1318.9a3.693,3.693,0,0,0,1.256-2.659s-10.514-15.045-11.46-16.546-8.02-25.565-8.02-25.565l-17.884-3.623s14.928,30.8,17.4,34.552c4.087,6.2,15.9,14.569,15.9,14.569A3.284,3.284,0,0,0,2651.058,1318.9Z" transform="translate(-2587.06 -1236.899)" fill="#c8d1ce"/><path d="M2626.435,1308.587a1,1,0,0,1-.652.249c-2.331-.032-9.125,1.263-14.875.673a42.838,42.838,0,0,1-13.744-3.966c-.612-.274-2.02-1.026-1.988-1.71.021-.749.095-1.834.188-3.2a171.182,171.182,0,0,0,.34-22.37c-.1-1.758-.151-3.5-.158-5.216-.047-12.789,2.489-24.037,7.584-27.844.435-.312,3.107.994,5.562,2.2a10.162,10.162,0,0,0,6.68.809l2.143,1.895a21.418,21.418,0,0,1,6.712,10.719c1.057,4.256,1.678,11.932,2.02,19.886.156,3.6.281,7.24.312,10.689v.124c.03.342.03.716.03,1.058C2626.715,1301.44,2626.589,1308.462,2626.435,1308.587Z" transform="translate(-2572.711 -1218.505)" fill="#eaeaea"/><path d="M2595.865,1350.891a171.266,171.266,0,0,0,.34-22.37c-.1-1.757-.152-3.5-.158-5.216,2.123-5.15,3.858-8.883,3.858-8.883h5.35S2609.178,1341.215,2595.865,1350.891Z" transform="translate(-2573.211 -1268.766)" fill="#c8d1ce"/><g transform="translate(4.513 27.546)"><path d="M2537.966,1443.969s.465,5.172-.414,6.052-5.688,1.448-6.826.724,1.314-1.714,1.418-2.593-1.735.412-2.333.228,3.655-4.047,3.914-4.771S2537.966,1443.969,2537.966,1443.969Z" transform="translate(-2529.754 -1389.868)" fill="#ffb792"/><path d="M2541.114,1305.146a17.531,17.531,0,0,0,4.015.223s5.72-17.67,6.456-19.283,16.99-20.718,16.99-20.718l-6.771-16.945s-17.58,29.365-19.365,33.491c-2.95,6.818-3.973,22.106-3.973,22.106A7.362,7.362,0,0,0,2541.114,1305.146Z" transform="translate(-2536.075 -1248.423)" fill="#eaeaea"/></g><path d="M2642.864,1221.524s-.009,1.138-.236,3.177c-3.888-.363-8.1-5.678-8.1-5.678l4.534-.565Z" transform="translate(-2601.263 -1199.135)" fill="#f3b092"/><path d="M2639.408,1184.258s-10.249,1.7-11.211-4.7-2.933-10.489,3.57-11.846,8.144.892,8.985,2.95S2642.05,1183.651,2639.408,1184.258Z" transform="translate(-2595.911 -1162.016)" fill="#ffb792"/><path d="M2616.561,1169.77c-2.738-2.737-7.409-12.19-5.935-15.949s6.438-5.931,12.877-5.776,7.259,4.488,5.712,5.776-2,1.9-3.9,1.9-2.861,4.965-4.588,5.275-3.511-.293-2.735,2.025c.694,2.073-.635,4.422-.924,4.9a.7.7,0,0,0-.08.192C2616.9,1168.5,2616.582,1169.792,2616.561,1169.77Z" transform="translate(-2583.718 -1148.037)" fill="#4a2c76"/></g></g><g transform="translate(2.624 84.228)"><path d="M1526.413,1440.808h-9.6l-.071.04.021-.04,1.042-1.986s.315-.158.787-.354c1.009-.419,2.732-1.011,3.611-.6C1523.408,1438.437,1526.064,1439.754,1526.413,1440.808Z" transform="translate(-1466.671 -1375.328)" fill="#ffb792"/><path d="M1458.735,1348.415a4.2,4.2,0,0,1-1.8,2.317l-.07.04.021-.04h-16.713a11.721,11.721,0,0,1-2.218-2.736,15.068,15.068,0,0,1-.785-1.479,20.2,20.2,0,0,1-1.727-7.168c-.4-5.874-.818-15.56-1.047-21.232-.11-2.729-.177-4.528-.177-4.528h0c.1.066,6.611,4.371,7.966,17.656,0,0,.341,10.683,1.534,11.524s13.847,4.264,14.993,5.621A.2.2,0,0,1,1458.735,1348.415Z" transform="translate(-1406.791 -1285.252)" fill="#ff4a1e"/><path d="M1401.715,1301.034s6.242,1.13,8.557,3.445,7.777,9.144,4.341,31.913c0,0-.276,6.862-7.992,7.523S1401.715,1301.034,1401.715,1301.034Z" transform="translate(-1382.842 -1276.141)" fill="#ff7042"/><path d="M1350.61,1466.094c1.073,7.471,8.275,26.892,8.065,33.6-.166,5.29-.079,17.509.62,25.627a49.91,49.91,0,0,0,.707,5.482c.62,2.994,1.414,6.441,1.841,8.615.951,4.879.454,7.725,1.231,10.343.855,2.863,10.675,2.34,7.716.6a8.686,8.686,0,0,1-3.352-3.64c-2.758-6.18,1.109-32.828,2.261-43.1.148-1.283.253-2.3.3-3,.384-6.346,4.74-48.62,4.74-48.62C1364.158,1446.121,1349.545,1458.622,1350.61,1466.094Z" transform="translate(-1346.083 -1384.577)" fill="#f2ac8c"/><path d="M1350.611,1466.055c1.073,7.471,8.275,26.892,8.065,33.6-.166,5.29-.079,17.509.62,25.627l10.4-21.7c.148-1.283.253-2.3.3-3,.384-6.346,4.849-48.635,4.849-48.635C1364.268,1446.066,1349.546,1458.583,1350.611,1466.055Z" transform="translate(-1346.084 -1384.539)" fill="#e2a188"/><path d="M1369.556,1452.857s-9.086,41.764-10.118,48.034-9.306,35.795-7.5,43.193c1.064,4.364,2.919,5.655,2.919,5.655.437.8-6.75,2.389-7.33-.673-.737-3.888-.892-9.345-1.971-18.6-1.859-15.93,1.828-25,2.722-31.653s-3-27.819-.839-35.051C1351.217,1451.108,1359.641,1445.918,1369.556,1452.857Z" transform="translate(-1342.078 -1384.057)" fill="#f2ac8c"/><path d="M1370.735,1490.131a27.03,27.03,0,0,1-5.224,1.507.038.038,0,0,1-.015,0,45.973,45.973,0,0,1-5.55.691,70.106,70.106,0,0,1-7.5.076l-.663-7.734-.7,2.8-1.2,4.794c-1.105-.077-2.1-.167-2.94-.255-1.806-.185-2.908-.356-2.908-.356-2.035-16.778.4-27.354,3.162-33.6h0a28.573,28.573,0,0,1,2.585-4.7c.433-.629.837-1.15,1.191-1.571.289-.344.545-.62.756-.837a7.458,7.458,0,0,1,.653-.608c.942.361,1.869.666,2.773.922q.969.274,1.9.474l.031.006q.64.14,1.259.247c.153.027.306.053.457.077q.729.116,1.423.195a31.073,31.073,0,0,0,6.581.066,21.077,21.077,0,0,0,2.649-.414l.11-.027.013.427.222,7.294Z" transform="translate(-1340.813 -1384.481)" fill="#ff7042"/><path d="M1338.844,1776.993c.3-.747,2.982-2.378,2.982-2.378s1.925,10.106,3.062,10.392a15.48,15.48,0,0,0,5.439.26s1.97.957,1.418,1.923c-.218.382-8.074.355-8.319.082-.676-.751-1.668-5.014-2.409-5.84-.047-.053-.1-.116-.155-.185l-.073,6.079s-.764.109-.764,0a67.953,67.953,0,0,0-.538-8.248A3.646,3.646,0,0,1,1338.844,1776.993Z" transform="translate(-1337.562 -1619.771)" fill="#ff4a1e"/><path d="M1380.726,1776.993c.3-.747,2.982-2.378,2.982-2.378s1.925,10.106,3.063,10.392a15.48,15.48,0,0,0,5.439.26s1.97.957,1.418,1.923c-.218.382-8.074.355-8.319.082-.669-.743-1.646-4.917-2.384-5.807l-.071,5.862s-.764.109-.764,0a73.779,73.779,0,0,0-.462-7.775C1381.042,1778.523,1380.557,1777.417,1380.726,1776.993Z" transform="translate(-1367.951 -1619.771)" fill="#ff4a1e"/><path d="M1390.983,1338.354c-.287,1.573-.579,2.929-.827,3.992-.018.076-.035.15-.052.223-.348,1.468-.6,2.316-.6,2.316l-.13.042-.059.021-.11.035q-.885.285-1.735.5a23.271,23.271,0,0,1-8.308.589,20.945,20.945,0,0,1-3.394-.674c-.226-.065-.445-.13-.654-.2l-.03-.009c-.541-.177-1.026-.361-1.45-.539a12.858,12.858,0,0,1-2.108-1.084l0,0a5.587,5.587,0,0,0,.282-.988,19.356,19.356,0,0,0,.3-2.775c.1-1.9.068-4.282-.035-6.9,0-.076-.006-.152-.008-.229-.133-3.28-.378-6.917-.631-10.449-.195-2.712-.393-5.361-.553-7.738-.049-.729-.094-1.432-.133-2.1-.222-3.75-.282-6.513.051-7.239.506-1.1,2.074-1.77,3.744-2.175.239-.058.481-.111.721-.159.033-.007-.071-.27-.038-.277.231-.044.6.172.824.137.1-.016.192-.031.288-.044a27.531,27.531,0,0,1,3.114-.278l.078,0a20.636,20.636,0,0,1,2.559,1.58c.114.081,1.586-.875,1.7-.787a13.191,13.191,0,0,1,4.689,6.593c1.282,4.164,3.166,6.224,3.56,10.334A69.035,69.035,0,0,1,1390.983,1338.354Z" transform="translate(-1360.603 -1277.089)" fill="#eaeaea"/><path d="M1353.513,1346.13a29.009,29.009,0,0,0,12.072-.759,13.125,13.125,0,0,0,3.2-1.318c3.378-2.078,5.019-17.457,4.434-23.279s-10.368-17.751-10.368-17.751c-2.4,1.781-3.457,5.924-4.9,11.362C1354.49,1327.468,1353.513,1346.13,1353.513,1346.13Z" transform="translate(-1348.229 -1277.584)" fill="#ff7042"/><path d="M1353.513,1376.175a29,29,0,0,0,12.072-.759,19.152,19.152,0,0,0,3.09-7.323c1.719-8.484-5.063-17.692-10.719-23.663C1354.49,1357.514,1353.513,1376.175,1353.513,1376.175Z" transform="translate(-1348.229 -1307.629)" fill="#ff4a1e"/><path d="M1358.431,1407.208l7.527,5.433a2.094,2.094,0,0,0,2.915-.471l8.394-11.63a2.094,2.094,0,0,0-.471-2.915l-7.527-5.432a2.1,2.1,0,0,0-2.915.471l-8.395,11.63A2.094,2.094,0,0,0,1358.431,1407.208Z" transform="translate(-1351.171 -1342)" fill="#4a2c76"/><path d="M1397.215,1433.965s3.679-.372,4.134.248a2.49,2.49,0,0,1-2.026,3.266c-2.067.248-4.423-1.447-4.423-1.447Z" transform="translate(-1378.26 -1372.516)" fill="#f2ac8c"/><path d="M1348.882,1303.022s-6.54.771-9.377,6.662-5.892,21.057-5.128,22.476,9.929,9.056,17.457,10.038c0,0,1.637-2.073,1.528-3.928,0,0-10.147-6.328-11.02-8.074s7.746-16.257,7.637-18.766S1348.882,1303.022,1348.882,1303.022Z" transform="translate(-1334.259 -1277.584)" fill="#ff7042"/><path d="M1396.119,1284.387a14.317,14.317,0,0,1-.321-2.819c0-.089,0-.181,0-.267,0-.541.03-1.007.059-1.367.045-.49.1-.781.1-.781l-.1-.027-4.123-1.257-3.556-1.084-.009.184c-.018.413-.039.811-.062,1.185-.006.113-.012.223-.018.333-.08,1.367-.17,2.493-.265,3.417-.018.163-.033.321-.051.472-.071.633-.143,1.162-.214,1.6v0a30.926,30.926,0,0,0,3.746,1.4c2.739.8,3.927.479,4.441,0A1.188,1.188,0,0,0,1396.119,1284.387Z" transform="translate(-1372.932 -1258.546)" fill="#ffb792"/><path d="M1397.408,1282.8c-.031.36-.059.828-.059,1.368,0,.087,0,.177,0,.267-5.366.171-7.783-3.574-7.65-3.589a34.443,34.443,0,0,1,3.582-.11l4.124,1.257.093.028S1397.451,1282.31,1397.408,1282.8Z" transform="translate(-1374.485 -1261.413)" fill="#f3b092"/><path d="M1376.209,1219s-.861-12.28-16.807-7.63c-3.618,1.055-3.148,11.979,5.615,16.139Z" transform="translate(-1350.961 -1210.317)" fill="#4a2c76"/><path d="M1392.746,1246.715s-9.307,1.869-10.382-3.945-3-9.488,2.9-10.927,7.465.565,8.3,2.418S1395.139,1246.079,1392.746,1246.715Z" transform="translate(-1368.309 -1225.581)" fill="#ffb792"/><path d="M1381.438,1225.026a13.218,13.218,0,0,0-1.773.133,7.918,7.918,0,0,0-9.059,2.74c-4.427,5.557,5.129,14.882,5.129,14.882-1.276-1.7-1.644-7.724,3.156-10.738,2.976-1.869,3.1-3.845,2.757-5.078l.132.039a4.87,4.87,0,0,1,4.054,4.9S1387.514,1224.885,1381.438,1225.026Z" transform="translate(-1359.783 -1220.759)" fill="#4a2c76"/></g><g transform="translate(460.33 161.045)"><g transform="translate(48.233 36.023)"><path d="M3209.2,1636.81s-6.312-7.364-.389-12.042c0,0,4.326-2.62,7.854-2.407,0,0-5,8.382-3.382,9.216s4.9-9.742,4.9-9.742,9.845-.955,13.013.568c0,0-8.417,6.888-6.644,7.3s10.864-6.35,10.864-6.35,9.163,1.559,8.675,7.149-3.646,7.316-5.034,7.167-9.506-3.248-9.683-2.11,4.71,4.853,8.132,5.027c0,0-6.461,7.125-10.754,5.068s-4.66-5.315-7.337-6.538-4.961-1.219-3.856.027,5.949,2.458,7.479,5.166,2.9,4.533-1.538,3.865-11.663-3.919-11.98-7.641Z" transform="translate(-3198.536 -1621.54)" fill="#4a2c6a"/><g transform="translate(0 9.068)"><path d="M3232.675,1654.63s-24.889-.959-30.385,6.159a18,18,0,0,1-4.956,6.955l-.583,1.589s4.313-4.547,5.856-4.822C3202.607,1664.511,3200.194,1655.692,3232.675,1654.63Z" transform="translate(-3191.621 -1654.586)" fill="#4a2c6a"/><path d="M3183.769,1700.881a15.628,15.628,0,0,0-5.713,11.01l.969.087s1.706-7.3,4.79-10.153S3183.769,1700.881,3183.769,1700.881Z" transform="translate(-3178.056 -1687.723)" fill="#4a2c6a"/></g></g><g transform="translate(0 16.029)"><path d="M3039.112,1574.678s10.042-5.623,5.355-13.255c0,0-3.749-4.686-7.765-5.891,0,0,2.142,11.38,0,11.648s-1.473-12.853-1.473-12.853-10.577-5.088-14.727-4.686c0,0,6.56,11.112,4.418,10.844s-9.505-11.514-9.505-11.514-10.845-2.008-12.586,4.418,1.071,9.64,2.678,10.042,11.916.268,11.648,1.606-7.229,3.481-11.112,2.276c0,0,4.284,10.576,9.908,10.041s7.364-4.016,10.844-4.284,6.025.67,4.284,1.607-7.631.307-10.443,2.7-5.087,3.863.134,4.934,14.594.4,16.468-3.615Z" transform="translate(-3002.281 -1548.675)" fill="#7c409c"/><g transform="translate(5.503 6.724)"><path d="M3022.334,1573.178s28.116,9.1,31.329,19.279a21.358,21.358,0,0,0,2.678,9.774v2.008s-2.946-6.828-4.553-7.766C3051.789,1596.473,3058.081,1587.637,3022.334,1573.178Z" transform="translate(-3022.334 -1573.178)" fill="#4a2c6a"/><path d="M3142.713,1675.751a18.543,18.543,0,0,1,1.864,14.6l-1.116-.3s1.083-8.828-1.186-13.268S3142.713,1675.751,3142.713,1675.751Z" transform="translate(-3108.706 -1646.698)" fill="#4a2c6a"/></g></g><g transform="translate(44.105)"><path d="M3171.714,1524.537s-13.237-7.413-7.059-17.472c0,0,4.941-6.177,10.236-7.765,0,0-2.824,15,0,15.354s1.941-16.942,1.941-16.942,13.943-6.706,19.414-6.177c0,0-8.648,14.648-5.825,14.3s12.531-15.178,12.531-15.178,14.295-2.647,16.589,5.824-1.412,12.707-3.53,13.236-15.707.353-15.354,2.118,9.53,4.589,14.648,3c0,0-5.647,13.942-13.06,13.237s-9.706-5.295-14.295-5.647-7.942.882-5.647,2.118,10.059.4,13.765,3.556,6.707,5.092-.176,6.5-19.237.53-21.708-4.765Z" transform="translate(-3163.012 -1490.261)" fill="#7c409c"/><g transform="translate(1.711 8.863)"><path d="M3226.688,1522.56s-37.062,12-41.3,25.414a28.164,28.164,0,0,1-3.53,12.883v2.647s3.883-9,6-10.236C3187.861,1553.268,3179.567,1541.62,3226.688,1522.56Z" transform="translate(-3178.4 -1522.56)" fill="#4a2c6a"/><path d="M3172.709,1657.769a24.445,24.445,0,0,0-2.457,19.245l1.471-.4s-1.427-11.637,1.563-17.489S3172.709,1657.769,3172.709,1657.769Z" transform="translate(-3169.248 -1619.473)" fill="#4a2c6a"/></g></g><path d="M3124.538,1747.193a25.928,25.928,0,0,0,25.927-25.928H3098.61A25.928,25.928,0,0,0,3124.538,1747.193Z" transform="translate(-3072.177 -1657.877)" fill="#ee8914"/><path d="M3139.275,1746.994a25.943,25.943,0,0,1-29.148-25.729h6.441A25.932,25.932,0,0,0,3139.275,1746.994Z" transform="translate(-3080.534 -1657.877)" fill="#ffe697"/><path d="M3149.877,1812.1H3097.3a3.2,3.2,0,0,1,3.2-3.2h46.174a3.2,3.2,0,0,1,3.2,3.2Z" transform="translate(-3071.23 -1721.468)" fill="#ee8914"/><rect width="53.298" height="0.795" transform="translate(25.58 63.387)" fill="#ee8914"/></g></g></g></svg>